<svg xmlns="http://www.w3.org/2000/svg" viewBox="0 0 512 512">
  <circle cx="256" cy="256" r="256" fill="#1a3f47"/>
  <circle cx="256" cy="256" r="240" fill="none" stroke="#a8d5dc" stroke-width="14"/>
  <circle cx="256" cy="256" r="220" fill="none" stroke="#a8d5dc" stroke-width="4" opacity="0.5"/>
  <circle cx="256" cy="18"  r="8" fill="#a8d5dc"/>
  <circle cx="494" cy="256" r="8" fill="#a8d5dc"/>
  <circle cx="256" cy="494" r="8" fill="#a8d5dc"/>
  <circle cx="18"  cy="256" r="8" fill="#a8d5dc"/>
  <path d="M256,100 L164,134 L164,208 L256,178 Z" fill="#ffffff" opacity="0.95"/>
  <path d="M256,100 L348,134 L348,208 L256,178 Z" fill="#ffffff" opacity="0.85"/>
  <rect x="248" y="98" width="16" height="82" rx="3" fill="#a8d5dc"/>
  <rect x="106" y="230" width="300" height="6" rx="3" fill="#a8d5dc" opacity="0.9"/>
  <rect x="106" y="242" width="300" height="3" rx="2" fill="#a8d5dc" opacity="0.4"/>
  <text x="256" y="328" font-family="Arial Black,Impact,sans-serif" font-weight="900" font-size="116" fill="#ffffff" text-anchor="middle" letter-spacing="8">ICA</text>
  <rect x="106" y="346" width="300" height="3" rx="2" fill="#a8d5dc" opacity="0.4"/>
  <rect x="106" y="354" width="300" height="6" rx="3" fill="#a8d5dc" opacity="0.9"/>
  <text x="256" y="410" font-family="Arial,sans-serif" font-weight="700" font-size="34" fill="#a8d5dc" text-anchor="middle" letter-spacing="10">LANGUAGES</text>
</svg>
