<svg xmlns="http://www.w3.org/2000/svg" viewBox="0 0 100 100" width="100" height="100">
  <circle cx="50" cy="50" r="50" fill="#296570"/>
  <circle cx="50" cy="50" r="45" fill="none" stroke="#ffffff" stroke-width="1" stroke-dasharray="2.5 2.5"/>
  <circle cx="50" cy="4"  r="1.8" fill="#ffffff"/>
  <circle cx="96" cy="50" r="1.8" fill="#ffffff"/>
  <circle cx="50" cy="96" r="1.8" fill="#ffffff"/>
  <circle cx="4"  cy="50" r="1.8" fill="#ffffff"/>
  <circle cx="50" cy="50" r="38" fill="none" stroke="#ffffff" stroke-width="1.8"/>
  <path d="M35 24 Q35 20 39 20 L49 20 L49 34 Q45 32 39 33 Q35 33 35 34 Z" fill="none" stroke="#ffffff" stroke-width="1.5" stroke-linejoin="round"/>
  <path d="M65 24 Q65 20 61 20 L51 20 L51 34 Q55 32 61 33 Q65 33 65 34 Z" fill="none" stroke="#ffffff" stroke-width="1.5" stroke-linejoin="round"/>
  <line x1="50" y1="20" x2="50" y2="34" stroke="#ffffff" stroke-width="1.2"/>
  <line x1="38" y1="25" x2="47" y2="25" stroke="#ffffff" stroke-width="1"/>
  <line x1="38" y1="28" x2="47" y2="28" stroke="#ffffff" stroke-width="1"/>
  <line x1="38" y1="31" x2="47" y2="31" stroke="#ffffff" stroke-width="1"/>
  <line x1="53" y1="25" x2="62" y2="25" stroke="#ffffff" stroke-width="1"/>
  <line x1="53" y1="28" x2="62" y2="28" stroke="#ffffff" stroke-width="1"/>
  <line x1="53" y1="31" x2="62" y2="31" stroke="#ffffff" stroke-width="1"/>
  <line x1="32" y1="40" x2="68" y2="40" stroke="#ffffff" stroke-width="0.8" opacity="0.6"/>
  <text x="50" y="60" font-family="Arial Black, Impact, sans-serif" font-weight="900" font-size="22" fill="#ffffff" text-anchor="middle" letter-spacing="3">ICA</text>
  <line x1="32" y1="65" x2="68" y2="65" stroke="#ffffff" stroke-width="0.8" opacity="0.6"/>
  <path d="M50 68 C46 68 43 71 43 74.5 C43 79 50 86 50 86 C50 86 57 79 57 74.5 C57 71 54 68 50 68 Z" fill="none" stroke="#ffffff" stroke-width="1.5"/>
  <circle cx="50" cy="74" r="2.5" fill="#ffffff"/>
</svg>
